<svg width="81" height="51" viewBox="0 0 81 51" fill="none" xmlns="http://www.w3.org/2000/svg">
<path d="M40.1427 16.8572L34.5063 18.1609M29.5972 19.1387C27.6444 19.404 26.4392 19.5483 24.1427 19.3017" stroke="#4195F1" stroke-width="1.2"/>
<path d="M51.2567 29.7143L81 7.92381L49.2857 13.1463L49.8232 17.2883L51.2567 29.7143Z" fill="#4195F1"/>
<path d="M81 7.92381L38.7143 0L46.7772 7.92381H81Z" fill="#4195F1"/>
<path d="M49.2857 13.1463L41.5811 16.3879L49.8232 17.2883L49.2857 13.1463Z" fill="#4195F1"/>
<path d="M46.7772 7.92381L41.5811 16.3879L49.2857 13.1463L81 7.92381H46.7772Z" fill="white"/>
<path d="M19.6254 18.6464C17.9843 18.4085 17.0142 18.1856 15.2818 17.6056" stroke="#4195F1" stroke-width="1.2"/>
<path d="M10.4285 16.2954C8.13718 15.7394 6.96379 16.046 4.99989 16.5713" stroke="#4195F1" stroke-width="1.2"/>
<path d="M1.42954 27.0771C2.47272 26.1727 4.17084 25.2628 6.34857 24.9224" stroke="#4195F1" stroke-width="1.2"/>
<path d="M20.2735 24.3209C21.983 24.6426 23.9191 25.3604 25.0981 26.5431" stroke="#4195F1" stroke-width="1.2"/>
<path d="M28.4832 29.3922C30.6231 31.5816 30.1555 34.6071 30.1555 34.6071" stroke="#4195F1" stroke-width="1.2"/>
<path d="M29.9121 37.712C30.177 40.3956 27.4439 42.8822 27.4439 42.8822" stroke="#4195F1" stroke-width="1.2"/>
<path d="M25.5714 45.4284C23.7816 46.9439 22.609 47.5175 20.1428 47.9998" stroke="#4195F1" stroke-width="1.2"/>
<path d="M15.6579 49.3287C13.3911 49.8507 12.1261 49.906 9.88055 49.5713" stroke="#4195F1" stroke-width="1.2"/>
<path d="M6.71429 48.8571C6.71429 48.8571 2.54922 47.7988 1 46.2857" stroke="#4195F1" stroke-width="1.2"/>
<path d="M15.6889 23.5666C13.7926 23.3191 12.9133 23.4566 11.1992 23.7668" stroke="#4195F1" stroke-width="1.2"/>
</svg>
