<svg  width="19" height="20" viewBox="0 0 19 20" fill="none" xmlns="http://www.w3.org/2000/svg">
<g id="Group">
<path id="Vector" fill-rule="evenodd" clip-rule="evenodd" d="M11.8936 11.0021C13.1068 11.0021 14.2704 11.4851 15.1283 12.3448C15.9861 13.2045 16.4681 14.3705 16.4681 15.5863V17.42C16.4681 17.6632 16.3717 17.8964 16.2001 18.0683C16.0285 18.2403 15.7958 18.3368 15.5532 18.3368C15.3105 18.3368 15.0778 18.2403 14.9063 18.0683C14.7347 17.8964 14.6383 17.6632 14.6383 17.42V15.5863C14.6383 14.8568 14.3491 14.1572 13.8344 13.6414C13.3197 13.1256 12.6215 12.8358 11.8936 12.8358H4.57447C3.84653 12.8358 3.14841 13.1256 2.63368 13.6414C2.11896 14.1572 1.82979 14.8568 1.82979 15.5863V17.42C1.82979 17.6632 1.7334 17.8964 1.56182 18.0683C1.39024 18.2403 1.15754 18.3368 0.914893 18.3368C0.672249 18.3368 0.439542 18.2403 0.267966 18.0683C0.0963902 17.8964 0 17.6632 0 17.42V15.5863C0 14.3705 0.481951 13.2045 1.33983 12.3448C2.19771 11.4851 3.36124 11.0021 4.57447 11.0021H11.8936ZM15.5532 5.50105C15.7958 5.50105 16.0285 5.59765 16.2001 5.76959C16.3717 5.94153 16.4681 6.17474 16.4681 6.4179V7.33474H17.383C17.6256 7.33474 17.8583 7.43134 18.0299 7.60328C18.2015 7.77522 18.2979 8.00842 18.2979 8.25158C18.2979 8.49474 18.2015 8.72795 18.0299 8.89989C17.8583 9.07183 17.6256 9.16842 17.383 9.16842H16.4681V10.0853C16.4681 10.3284 16.3717 10.5616 16.2001 10.7336C16.0285 10.9055 15.7958 11.0021 15.5532 11.0021C15.3105 11.0021 15.0778 10.9055 14.9063 10.7336C14.7347 10.5616 14.6383 10.3284 14.6383 10.0853V9.16842H13.7234C13.4808 9.16842 13.248 9.07183 13.0765 8.89989C12.9049 8.72795 12.8085 8.49474 12.8085 8.25158C12.8085 8.00842 12.9049 7.77522 13.0765 7.60328C13.248 7.43134 13.4808 7.33474 13.7234 7.33474H14.6383V6.4179C14.6383 6.17474 14.7347 5.94153 14.9063 5.76959C15.0778 5.59765 15.3105 5.50105 15.5532 5.50105ZM8.23404 0C9.44726 0 10.6108 0.482978 11.4687 1.34268C12.3266 2.20239 12.8085 3.3684 12.8085 4.58421C12.8085 5.80002 12.3266 6.96603 11.4687 7.82574C10.6108 8.68545 9.44726 9.16842 8.23404 9.16842C7.02082 9.16842 5.85728 8.68545 4.9994 7.82574C4.14152 6.96603 3.65957 5.80002 3.65957 4.58421C3.65957 3.3684 4.14152 2.20239 4.9994 1.34268C5.85728 0.482978 7.02082 0 8.23404 0ZM8.23404 1.83368C7.8736 1.83368 7.5167 1.90483 7.1837 2.04306C6.8507 2.18128 6.54812 2.38389 6.29326 2.6393C6.03839 2.89471 5.83622 3.19792 5.69829 3.53163C5.56035 3.86534 5.48936 4.22301 5.48936 4.58421C5.48936 4.94542 5.56035 5.30308 5.69829 5.63679C5.83622 5.9705 6.03839 6.27372 6.29326 6.52913C6.54812 6.78454 6.8507 6.98714 7.1837 7.12537C7.5167 7.2636 7.8736 7.33474 8.23404 7.33474C8.96197 7.33474 9.6601 7.04495 10.1748 6.52913C10.6895 6.01331 10.9787 5.3137 10.9787 4.58421C10.9787 3.85473 10.6895 3.15512 10.1748 2.6393C9.6601 2.12347 8.96197 1.83368 8.23404 1.83368Z" fill="black"/>
</g>
</svg>
