<svg width="15" height="18" viewBox="0 0 15 18" fill="none" xmlns="http://www.w3.org/2000/svg">
<g id="Layer_1" clip-path="url(#clip0_2021_862)">
<g id="Group">
<g id="Group_2">
<path id="Vector" d="M9.9 3.375H1.8C0.80595 3.375 0 4.38244 0 5.625V15.75C0 16.9926 0.80595 18 1.8 18H9.9C10.894 18 11.7 16.9926 11.7 15.75V5.625C11.7 4.38244 10.894 3.375 9.9 3.375ZM10.8 15.75C10.8 16.3707 10.3966 16.875 9.9 16.875H1.8C1.30387 16.875 0.9 16.3707 0.9 15.75V5.625C0.9 5.00428 1.30387 4.5 1.8 4.5H9.9C10.3966 4.5 10.8 5.00428 10.8 5.625V15.75Z" fill="black"/>
</g>
</g>
<path id="Vector_2" d="M2.7002 7.875H9.0002V6.75H2.7002V7.875Z" fill="black"/>
<path id="Vector_3" d="M2.7002 10.125H9.0002V9H2.7002V10.125Z" fill="black"/>
<path id="Vector_4" d="M2.7002 12.375H9.0002V11.25H2.7002V12.375Z" fill="black"/>
<path id="Vector_5" d="M2.7002 14.625H6.3002V13.5H2.7002V14.625Z" fill="black"/>
<path id="Vector_6" d="M12.6002 0H4.5002C3.50615 0 2.7002 1.00744 2.7002 2.25H3.6002C3.6002 1.62928 4.00407 1.125 4.5002 1.125H12.6002C13.0968 1.125 13.5002 1.62928 13.5002 2.25V12.375C13.5002 12.9957 13.0968 13.5 12.6002 13.5V14.625C13.5942 14.625 14.4002 13.6176 14.4002 12.375V2.25C14.4002 1.00744 13.5942 0 12.6002 0Z" fill="black"/>
</g>
<defs>
<clipPath id="clip0_2021_862">
<rect width="14.4" height="18" fill="white"/>
</clipPath>
</defs>
</svg>
