<svg width="15" height="16" viewBox="0 0 15 16" fill="none" xmlns="http://www.w3.org/2000/svg">
<path id="Vector" d="M1.6 16C1.16 16 0.783467 15.8435 0.4704 15.5304C0.157333 15.2173 0.000533333 14.8405 0 14.4V3.2C0 2.76 0.1568 2.38347 0.4704 2.0704C0.784 1.75733 1.16053 1.60053 1.6 1.6H2.4V0H4V1.6H10.4V0H12V1.6H12.8C13.24 1.6 13.6168 1.7568 13.9304 2.0704C14.244 2.384 14.4005 2.76053 14.4 3.2V14.4C14.4 14.84 14.2435 15.2168 13.9304 15.5304C13.6173 15.844 13.2405 16.0005 12.8 16H1.6ZM1.6 14.4H12.8V6.4H1.6V14.4Z" fill="black"/>
</svg>
