<svg width="24" height="24" viewBox="0 0 24 24" fill="none" xmlns="http://www.w3.org/2000/svg">
<g id="Frame">
<g id="Group">
<path id="Vector" d="M22 13C22 18.523 17.523 23 12 23C6.4772 23 2 18.523 2 13C2 7.4772 6.4772 3 12 3C17.523 3 22 7.4772 22 13Z" fill="#27AE60"/>
<path id="Vector_2" d="M22 12C22 17.523 17.523 22 12 22C6.4772 22 2 17.523 2 12C2 6.4772 6.4772 2 12 2C17.523 2 22 6.4772 22 12Z" fill="#2ECC71"/>
<path id="Vector_3" d="M16 9L10 15L7.5 12.5L5.375 14.6L7.875 17.1L9.875 19.1L10 19.2L18.125 11.1L16 9Z" fill="#27AE60"/>
<path id="Vector_4" d="M16 8L10 14L7.5 11.5L5.375 13.6L7.875 16.1L9.875 18.1L10 18.2L18.125 10.1L16 8Z" fill="#ECF0F1"/>
</g>
</g>
</svg>
