<svg width="16" height="16" viewBox="0 0 16 16" fill="none" xmlns="http://www.w3.org/2000/svg">
<path id="Vector" d="M6.0556 9.9444L9.9444 6.0556M11.769 10.03L13.799 8C14.1798 7.61923 14.4818 7.1672 14.6879 6.6697C14.8939 6.1722 15 5.63899 15 5.1005C15 4.56202 14.8939 4.02881 14.6879 3.53131C14.4818 3.03381 14.1798 2.58178 13.799 2.20101C13.4182 1.82024 12.9662 1.5182 12.4687 1.31213C11.9712 1.10606 11.438 1 10.8995 1C10.361 1 9.82779 1.10606 9.3303 1.31213C8.8328 1.5182 8.38077 1.82024 8 2.20101L5.97004 4.23097M10.03 11.769L8 13.799C7.61923 14.1798 7.1672 14.4818 6.6697 14.6879C6.1722 14.8939 5.63899 15 5.1005 15C4.56202 15 4.02881 14.8939 3.53131 14.6879C3.03381 14.4818 2.58178 14.1798 2.20101 13.799C1.82024 13.4182 1.5182 12.9662 1.31213 12.4687C1.10606 11.9712 1 11.438 1 10.8995C1 10.361 1.10606 9.82779 1.31213 9.3303C1.5182 8.8328 1.82024 8.38077 2.20101 8L4.23097 5.97004" stroke="#00B9CB" stroke-width="2" stroke-linecap="round" stroke-linejoin="round"/>
</svg>
