<svg width="27" height="15" viewBox="0 0 27 15" fill="none" xmlns="http://www.w3.org/2000/svg">
<g id="Group 23">
<path id="Vector" d="M25.875 0H1.125C0.50368 0 0 0.50368 0 1.125C0 1.74632 0.50368 2.25 1.125 2.25H25.875C26.4963 2.25 27 1.74632 27 1.125C27 0.50368 26.4963 0 25.875 0Z" fill="black"/>
<path id="Vector_2" d="M21.375 6.375H1.125C0.50368 6.375 0 6.87868 0 7.5C0 8.12132 0.50368 8.625 1.125 8.625H21.375C21.9963 8.625 22.5 8.12132 22.5 7.5C22.5 6.87868 21.9963 6.375 21.375 6.375Z" fill="black"/>
<path id="Vector_3" d="M25.875 12.7471H1.125C0.50368 12.7471 0 13.2508 0 13.8721C0 14.4934 0.50368 14.9971 1.125 14.9971H25.875C26.4963 14.9971 27 14.4934 27 13.8721C27 13.2508 26.4963 12.7471 25.875 12.7471Z" fill="black"/>
</g>
</svg>
