<svg width="26" height="26" viewBox="0 0 26 26" fill="none" xmlns="http://www.w3.org/2000/svg">
<g id="Group">
<path id="Vector" d="M12.3706 2.25879H3.5268C2.85665 2.25879 2.21395 2.52501 1.74008 2.99887C1.26622 3.47274 1 4.11544 1 4.78559V22.4732C1 23.1434 1.26622 23.7861 1.74008 24.2599C2.21395 24.7338 2.85665 25 3.5268 25H21.2144C21.8846 25 22.5273 24.7338 23.0012 24.2599C23.475 23.7861 23.7412 23.1434 23.7412 22.4732V13.6294" stroke="white" stroke-width="2" stroke-linecap="round" stroke-linejoin="round"/>
<path id="Vector_2" d="M20.4249 1.78498C20.9275 1.28236 21.6092 1 22.32 1C23.0308 1 23.7125 1.28236 24.2151 1.78498C24.7177 2.28759 25.0001 2.96928 25.0001 3.68008C25.0001 4.39088 24.7177 5.07257 24.2151 5.57518L12.828 16.9635C12.528 17.2632 12.1574 17.4826 11.7503 17.6015L8.12059 18.6628C8.01188 18.6945 7.89664 18.6964 7.78694 18.6683C7.67724 18.6402 7.57711 18.5831 7.49703 18.503C7.41696 18.4229 7.35988 18.3228 7.33178 18.2131C7.30367 18.1034 7.30557 17.9882 7.33728 17.8795L8.39854 14.2497C8.51796 13.843 8.7378 13.4728 9.03782 13.1733L20.4249 1.78498Z" stroke="white" stroke-width="2" stroke-linecap="round" stroke-linejoin="round"/>
</g>
</svg>
