<svg width="18" height="18" viewBox="0 0 18 18" fill="none" xmlns="http://www.w3.org/2000/svg">
<path id="Vector" d="M9 18C4.0293 18 0 13.9707 0 9C0 4.0293 4.0293 0 9 0C13.9707 0 18 4.0293 18 9C18 13.9707 13.9707 18 9 18ZM9 16.2C10.9096 16.2 12.7409 15.4414 14.0912 14.0912C15.4414 12.7409 16.2 10.9096 16.2 9C16.2 7.09044 15.4414 5.25909 14.0912 3.90883C12.7409 2.55857 10.9096 1.8 9 1.8C7.09044 1.8 5.25909 2.55857 3.90883 3.90883C2.55857 5.25909 1.8 7.09044 1.8 9C1.8 10.9096 2.55857 12.7409 3.90883 14.0912C5.25909 15.4414 7.09044 16.2 9 16.2ZM5.85 10.8H10.8C10.9193 10.8 11.0338 10.7526 11.1182 10.6682C11.2026 10.5838 11.25 10.4693 11.25 10.35C11.25 10.2307 11.2026 10.1162 11.1182 10.0318C11.0338 9.94741 10.9193 9.9 10.8 9.9H7.2C6.60326 9.9 6.03097 9.66295 5.60901 9.24099C5.18705 8.81903 4.95 8.24674 4.95 7.65C4.95 7.05326 5.18705 6.48097 5.60901 6.05901C6.03097 5.63705 6.60326 5.4 7.2 5.4H8.1V3.6H9.9V5.4H12.15V7.2H7.2C7.08065 7.2 6.96619 7.24741 6.8818 7.3318C6.79741 7.41619 6.75 7.53065 6.75 7.65C6.75 7.76935 6.79741 7.88381 6.8818 7.9682C6.96619 8.05259 7.08065 8.1 7.2 8.1H10.8C11.3967 8.1 11.969 8.33705 12.391 8.75901C12.8129 9.18097 13.05 9.75326 13.05 10.35C13.05 10.9467 12.8129 11.519 12.391 11.941C11.969 12.3629 11.3967 12.6 10.8 12.6H9.9V14.4H8.1V12.6H5.85V10.8Z" fill="black"/>
</svg>
