<svg width="50" height="94" viewBox="0 0 50 94" fill="none" xmlns="http://www.w3.org/2000/svg">
<path d="M35.9219 0.5C41.5338 0.5 46.8657 0.887358 48.8496 1.10352V15.9502H42.2998C37.5392 15.9502 34.9746 17.1037 33.6602 19.0557C33.0141 20.0152 32.7033 21.1224 32.5508 22.2734C32.3988 23.4201 32.4004 24.6468 32.4004 25.8496V35.75H48.71L44.2598 53.5498H32.4004V93.5H14.5996V53.5498H0.5V35.75H14.5996V22.0898C14.5996 15.0476 16.828 9.66439 20.5732 6.04102C24.3216 2.41476 29.6426 0.500046 35.9219 0.5Z" fill="url(#paint0_linear_2099_201)" stroke="url(#paint1_linear_2099_201)"/>
<defs>
<linearGradient id="paint0_linear_2099_201" x1="24.675" y1="0" x2="24.675" y2="94" gradientUnits="userSpaceOnUse">
<stop stop-color="white" stop-opacity="0.12"/>
<stop offset="1" stop-color="#696969" stop-opacity="0.12"/>
</linearGradient>
<linearGradient id="paint1_linear_2099_201" x1="24.675" y1="0" x2="24.675" y2="94" gradientUnits="userSpaceOnUse">
<stop stop-color="white" stop-opacity="0.12"/>
<stop offset="1" stop-color="white" stop-opacity="0"/>
</linearGradient>
</defs>
</svg>
