<svg width="32" height="32" viewBox="0 0 32 32" fill="none" xmlns="http://www.w3.org/2000/svg">
<g id="Group 15">
<circle id="Ellipse 1" cx="16" cy="16" r="16" fill="#00B9CB"/>
<path id="Vector" d="M15.9999 13.2854C14.4997 13.2854 13.2847 14.5005 13.2847 16.0006C13.2847 17.5007 14.4997 18.7158 15.9999 18.7158C17.5 18.7158 18.715 17.5007 18.715 16.0006C18.715 14.5005 17.5 13.2854 15.9999 13.2854ZM22.0682 15.3218C21.9145 13.9453 21.2972 12.662 20.3178 11.6826C19.3385 10.7032 18.0552 10.086 16.6787 9.93224V8.53394H15.3211V9.93224C13.9446 10.086 12.6613 10.7032 11.6819 11.6826C10.7025 12.662 10.0853 13.9453 9.93151 15.3218H8.5332V16.6794H9.93151C10.0853 18.0559 10.7025 19.3392 11.6819 20.3186C12.6613 21.298 13.9446 21.9152 15.3211 22.069V23.4673H16.6787V22.069C18.0552 21.9152 19.3385 21.298 20.3178 20.3186C21.2972 19.3392 21.9145 18.0559 22.0682 16.6794H23.4665V15.3218H22.0682ZM15.9999 20.7521C13.373 20.7521 11.2484 18.6275 11.2484 16.0006C11.2484 13.3737 13.373 11.2491 15.9999 11.2491C18.6268 11.2491 20.7514 13.3737 20.7514 16.0006C20.7514 18.6275 18.6268 20.7521 15.9999 20.7521Z" fill="white"/>
</g>
</svg>
