<svg width="32" height="32" viewBox="0 0 32 32" fill="none" xmlns="http://www.w3.org/2000/svg">
<g id="Group 17">
<circle id="Ellipse 3" cx="16" cy="16" r="16" fill="#00B9CB"/>
<path id="Vector" d="M22.5582 10.6137H19.7732C19.6919 9.61113 19.2363 8.67584 18.4968 7.99391C17.7574 7.31197 16.7883 6.93335 15.7824 6.93335C14.7765 6.93335 13.8075 7.31197 13.068 7.99391C12.3286 8.67584 11.8729 9.61113 11.7916 10.6137H9.00663C8.59821 10.6137 8.20651 10.776 7.91772 11.0648C7.62892 11.3536 7.46667 11.7453 7.46667 12.1537V21.3934C7.46667 21.8018 7.62892 22.1935 7.91772 22.4823C8.20651 22.7711 8.59821 22.9333 9.00663 22.9333H22.5582C22.9666 22.9333 23.3583 22.7711 23.6471 22.4823C23.9359 22.1935 24.0982 21.8018 24.0982 21.3934V12.1537C24.0982 11.7453 23.9359 11.3536 23.6471 11.0648C23.3583 10.776 22.9666 10.6137 22.5582 10.6137ZM15.7824 8.76579C16.3008 8.76584 16.8018 8.95268 17.1937 9.29206C17.5855 9.63145 17.842 10.1007 17.916 10.6137H13.6488C13.7229 10.1007 13.9793 9.63145 14.3712 9.29206C14.763 8.95268 15.264 8.76584 15.7824 8.76579ZM22.2502 21.0854H9.31462V12.4617H22.2502V21.0854Z" fill="white"/>
</g>
</svg>
