<svg width="89" height="89" viewBox="0 0 89 89" fill="none" xmlns="http://www.w3.org/2000/svg">
<mask id="path-1-inside-1_2099_192" fill="white">
<path d="M49.0747 0C54.0807 0.0133497 56.6215 0.040049 58.8152 0.102348L59.6785 0.133497C60.6752 0.169096 61.6586 0.213595 62.8467 0.266993C67.5813 0.489488 70.8118 1.23707 73.6463 2.33619C76.5832 3.46647 79.0572 4.99723 81.5313 7.46692C83.7949 9.69067 85.5458 12.3817 86.6619 15.3521C87.761 18.1867 88.5086 21.4173 88.7311 26.1565C88.7845 27.3401 88.8289 28.3236 88.8645 29.3248L88.8913 30.1881C88.958 32.3774 88.9847 34.9183 88.9936 39.9244L88.998 43.2441V49.0734C89.0089 52.3192 88.9748 55.5649 88.8957 58.8098L88.869 59.673C88.8334 60.6743 88.7889 61.6577 88.7355 62.8414C88.513 67.5805 87.7566 70.8067 86.6619 73.6457C85.5458 76.6161 83.7949 79.3072 81.5313 81.5309C79.3076 83.7946 76.6167 85.5455 73.6463 86.6617C70.8118 87.7608 67.5813 88.5084 62.8467 88.7309L59.6785 88.8643L58.8152 88.891C56.6215 88.9533 54.0807 88.9845 49.0747 88.9934L45.7551 88.9978H39.9304C36.6832 89.0093 33.436 88.9752 30.1898 88.8955L29.3266 88.8688C28.2702 88.8288 27.2141 88.7828 26.1583 88.7309C21.4237 88.5084 18.1932 87.7608 15.3543 86.6617C12.3855 85.545 9.69611 83.794 7.4737 81.5309C5.20852 79.3076 3.45604 76.6165 2.33866 73.6457C1.23957 70.8111 0.492006 67.5805 0.269517 62.8414L0.136024 59.673L0.113776 58.8098C0.0317489 55.565 -0.00533659 52.3192 0.00253102 49.0734V39.9244C-0.00978549 36.6787 0.0228497 33.4329 0.100426 30.1881L0.131575 29.3248C0.167173 28.3236 0.211671 27.3401 0.265068 26.1565C0.487557 21.4173 1.23512 18.1912 2.33421 15.3521C3.4542 12.3805 5.20976 9.68936 7.47815 7.46692C9.69927 5.20437 12.3871 3.45344 15.3543 2.33619C18.1932 1.23707 21.4193 0.489488 26.1583 0.266993C27.342 0.213595 28.3298 0.169096 29.3266 0.133497L30.1898 0.106797C33.4346 0.0277349 36.6802 -0.00638425 39.9259 0.00444957L49.0747 0ZM44.5003 22.2495C38.5995 22.2495 32.9404 24.5936 28.768 28.7662C24.5955 32.9388 22.2514 38.598 22.2514 44.4989C22.2514 50.3998 24.5955 56.0591 28.768 60.2317C32.9404 64.4043 38.5995 66.7484 44.5003 66.7484C50.4011 66.7484 56.0601 64.4043 60.2326 60.2317C64.4051 56.0591 66.7492 50.3998 66.7492 44.4989C66.7492 38.598 64.4051 32.9388 60.2326 28.7662C56.0601 24.5936 50.4011 22.2495 44.5003 22.2495ZM44.5003 31.1492C46.2533 31.149 47.9893 31.494 49.609 32.1646C51.2287 32.8352 52.7005 33.8183 53.9403 35.0577C55.1801 36.2971 56.1637 37.7686 56.8348 39.3882C57.506 41.0077 57.8515 42.7436 57.8518 44.4967C57.8521 46.2498 57.5071 47.9858 56.8365 49.6056C56.1659 51.2253 55.1829 52.6972 53.9435 53.937C52.7041 55.1768 51.2326 56.1604 49.6131 56.8316C47.9936 57.5027 46.2578 57.8483 44.5047 57.8486C40.9643 57.8486 37.5688 56.4421 35.0653 53.9386C32.5619 51.435 31.1554 48.0395 31.1554 44.4989C31.1554 40.9584 32.5619 37.5628 35.0653 35.0593C37.5688 32.5557 40.9643 31.1492 44.5047 31.1492M67.8661 15.5746C66.3909 15.5746 64.9761 16.1607 63.933 17.2038C62.8899 18.2469 62.3038 19.6618 62.3038 21.137C62.3038 22.6122 62.8899 24.027 63.933 25.0702C64.9761 26.1133 66.3909 26.6994 67.8661 26.6994C69.3412 26.6994 70.756 26.1133 71.7991 25.0702C72.8423 24.027 73.4283 22.6122 73.4283 21.137C73.4283 19.6618 72.8423 18.2469 71.7991 17.2038C70.756 16.1607 69.3412 15.5746 67.8661 15.5746Z"/>
</mask>
<path d="M49.0747 0C54.0807 0.0133497 56.6215 0.040049 58.8152 0.102348L59.6785 0.133497C60.6752 0.169096 61.6586 0.213595 62.8467 0.266993C67.5813 0.489488 70.8118 1.23707 73.6463 2.33619C76.5832 3.46647 79.0572 4.99723 81.5313 7.46692C83.7949 9.69067 85.5458 12.3817 86.6619 15.3521C87.761 18.1867 88.5086 21.4173 88.7311 26.1565C88.7845 27.3401 88.8289 28.3236 88.8645 29.3248L88.8913 30.1881C88.958 32.3774 88.9847 34.9183 88.9936 39.9244L88.998 43.2441V49.0734C89.0089 52.3192 88.9748 55.5649 88.8957 58.8098L88.869 59.673C88.8334 60.6743 88.7889 61.6577 88.7355 62.8414C88.513 67.5805 87.7566 70.8067 86.6619 73.6457C85.5458 76.6161 83.7949 79.3072 81.5313 81.5309C79.3076 83.7946 76.6167 85.5455 73.6463 86.6617C70.8118 87.7608 67.5813 88.5084 62.8467 88.7309L59.6785 88.8643L58.8152 88.891C56.6215 88.9533 54.0807 88.9845 49.0747 88.9934L45.7551 88.9978H39.9304C36.6832 89.0093 33.436 88.9752 30.1898 88.8955L29.3266 88.8688C28.2702 88.8288 27.2141 88.7828 26.1583 88.7309C21.4237 88.5084 18.1932 87.7608 15.3543 86.6617C12.3855 85.545 9.69611 83.794 7.4737 81.5309C5.20852 79.3076 3.45604 76.6165 2.33866 73.6457C1.23957 70.8111 0.492006 67.5805 0.269517 62.8414L0.136024 59.673L0.113776 58.8098C0.0317489 55.565 -0.00533659 52.3192 0.00253102 49.0734V39.9244C-0.00978549 36.6787 0.0228497 33.4329 0.100426 30.1881L0.131575 29.3248C0.167173 28.3236 0.211671 27.3401 0.265068 26.1565C0.487557 21.4173 1.23512 18.1912 2.33421 15.3521C3.4542 12.3805 5.20976 9.68936 7.47815 7.46692C9.69927 5.20437 12.3871 3.45344 15.3543 2.33619C18.1932 1.23707 21.4193 0.489488 26.1583 0.266993C27.342 0.213595 28.3298 0.169096 29.3266 0.133497L30.1898 0.106797C33.4346 0.0277349 36.6802 -0.00638425 39.9259 0.00444957L49.0747 0ZM44.5003 22.2495C38.5995 22.2495 32.9404 24.5936 28.768 28.7662C24.5955 32.9388 22.2514 38.598 22.2514 44.4989C22.2514 50.3998 24.5955 56.0591 28.768 60.2317C32.9404 64.4043 38.5995 66.7484 44.5003 66.7484C50.4011 66.7484 56.0601 64.4043 60.2326 60.2317C64.4051 56.0591 66.7492 50.3998 66.7492 44.4989C66.7492 38.598 64.4051 32.9388 60.2326 28.7662C56.0601 24.5936 50.4011 22.2495 44.5003 22.2495ZM44.5003 31.1492C46.2533 31.149 47.9893 31.494 49.609 32.1646C51.2287 32.8352 52.7005 33.8183 53.9403 35.0577C55.1801 36.2971 56.1637 37.7686 56.8348 39.3882C57.506 41.0077 57.8515 42.7436 57.8518 44.4967C57.8521 46.2498 57.5071 47.9858 56.8365 49.6056C56.1659 51.2253 55.1829 52.6972 53.9435 53.937C52.7041 55.1768 51.2326 56.1604 49.6131 56.8316C47.9936 57.5027 46.2578 57.8483 44.5047 57.8486C40.9643 57.8486 37.5688 56.4421 35.0653 53.9386C32.5619 51.435 31.1554 48.0395 31.1554 44.4989C31.1554 40.9584 32.5619 37.5628 35.0653 35.0593C37.5688 32.5557 40.9643 31.1492 44.5047 31.1492M67.8661 15.5746C66.3909 15.5746 64.9761 16.1607 63.933 17.2038C62.8899 18.2469 62.3038 19.6618 62.3038 21.137C62.3038 22.6122 62.8899 24.027 63.933 25.0702C64.9761 26.1133 66.3909 26.6994 67.8661 26.6994C69.3412 26.6994 70.756 26.1133 71.7991 25.0702C72.8423 24.027 73.4283 22.6122 73.4283 21.137C73.4283 19.6618 72.8423 18.2469 71.7991 17.2038C70.756 16.1607 69.3412 15.5746 67.8661 15.5746Z" fill="url(#paint0_linear_2099_192)"/>
<path d="M49.0747 0L49.0773 -1L49.0742 -1L49.0747 0ZM58.8152 0.102348L58.8513 -0.897032L58.8436 -0.897249L58.8152 0.102348ZM59.6785 0.133497L59.6424 1.13285L59.6428 1.13286L59.6785 0.133497ZM62.8467 0.266993L62.8937 -0.731906L62.8916 -0.731998L62.8467 0.266993ZM73.6463 2.33619L73.2848 3.26855L73.2871 3.26946L73.6463 2.33619ZM81.5313 7.46692L80.8248 8.17467L80.8305 8.18027L81.5313 7.46692ZM86.6619 15.3521L85.7258 15.7039L85.7295 15.7136L86.6619 15.3521ZM88.7311 26.1565L89.73 26.1114L89.73 26.1096L88.7311 26.1565ZM88.8645 29.3248L89.8641 29.2939L89.8639 29.2893L88.8645 29.3248ZM88.8913 30.1881L89.8908 30.1576L89.8908 30.1572L88.8913 30.1881ZM88.9936 39.9244L89.9936 39.9231V39.9227L88.9936 39.9244ZM88.998 43.2441H89.998L89.998 43.2427L88.998 43.2441ZM88.998 49.0734H87.998L87.998 49.0767L88.998 49.0734ZM88.8957 58.8098L89.8952 58.8407L89.8954 58.8341L88.8957 58.8098ZM88.869 59.673L89.8684 59.7086L89.8685 59.704L88.869 59.673ZM88.7355 62.8414L89.7344 62.8883L89.7345 62.8864L88.7355 62.8414ZM86.6619 73.6457L85.7288 73.2859L85.7258 73.294L86.6619 73.6457ZM81.5313 81.5309L80.8305 80.8176L80.8242 80.8238L80.8179 80.8301L81.5313 81.5309ZM73.6463 86.6617L73.2946 85.7255L73.2848 85.7293L73.6463 86.6617ZM62.8467 88.7309L62.8888 89.73L62.8937 89.7297L62.8467 88.7309ZM59.6785 88.8643L59.7094 89.8639L59.7206 89.8635L59.6785 88.8643ZM58.8152 88.891L58.8436 89.8906L58.8461 89.8906L58.8152 88.891ZM49.0747 88.9934L49.076 89.9934H49.0764L49.0747 88.9934ZM45.7551 88.9978V89.9978H45.7565L45.7551 88.9978ZM39.9304 88.9978V87.9978L39.9268 87.9978L39.9304 88.9978ZM30.1898 88.8955L30.1589 89.895L30.1653 89.8952L30.1898 88.8955ZM29.3266 88.8688L29.2887 89.8681L29.2956 89.8683L29.3266 88.8688ZM26.1583 88.7309L26.2075 87.7321L26.2053 87.7319L26.1583 88.7309ZM15.3543 86.6617L15.7153 85.7291L15.7063 85.7257L15.3543 86.6617ZM7.4737 81.5309L8.18719 80.8303L8.18075 80.8237L8.17418 80.8173L7.4737 81.5309ZM2.33866 73.6457L3.2747 73.2937L3.27103 73.2842L2.33866 73.6457ZM0.269517 62.8414L-0.729608 62.8835L-0.729383 62.8883L0.269517 62.8414ZM0.136024 59.673L-0.863644 59.6988L-0.863433 59.707L-0.863089 59.7151L0.136024 59.673ZM0.113776 58.8098L-0.885905 58.835L-0.885892 58.8355L0.113776 58.8098ZM0.00253102 49.0734L1.00253 49.0758V49.0734H0.00253102ZM0.00253102 39.9244H1.00254L1.00252 39.9206L0.00253102 39.9244ZM0.100426 30.1881L-0.898997 30.152L-0.899288 30.1642L0.100426 30.1881ZM0.131575 29.3248L1.13092 29.3608L1.13094 29.3603L0.131575 29.3248ZM0.265068 26.1565L-0.733834 26.1096L-0.733916 26.1114L0.265068 26.1565ZM2.33421 15.3521L3.26681 15.7132L3.26996 15.7048L2.33421 15.3521ZM7.47815 7.46692L8.17799 8.18122L8.18494 8.17441L8.19176 8.16746L7.47815 7.46692ZM15.3543 2.33619L15.7067 3.27209L15.7153 3.26874L15.3543 2.33619ZM26.1583 0.266993L26.1132 -0.731992L26.1114 -0.731906L26.1583 0.266993ZM29.3266 0.133497L29.2956 -0.866037L29.2909 -0.865866L29.3266 0.133497ZM30.1898 0.106797L30.1655 -0.892928L30.1589 -0.892725L30.1898 0.106797ZM39.9259 0.00444957L39.9226 1.00445L39.9264 1.00445L39.9259 0.00444957ZM44.5003 22.2495V21.2495V22.2495ZM22.2514 44.4989H21.2514H22.2514ZM44.5003 66.7484V65.7484V66.7484ZM66.7492 44.4989H65.7492H66.7492ZM44.5047 57.8486V58.8486L44.5049 58.8486L44.5047 57.8486ZM49.0747 0L49.072 0.999996C54.0774 1.01334 56.607 1.04004 58.7868 1.10194L58.8152 0.102348L58.8436 -0.897249C56.6359 -0.959944 54.0839 -0.986645 49.0773 -0.999996L49.0747 0ZM58.8152 0.102348L58.7792 1.1017L59.6424 1.13285L59.6785 0.133497L59.7145 -0.865853L58.8513 -0.897002L58.8152 0.102348ZM59.6785 0.133497L59.6428 1.13286C60.634 1.16826 61.6125 1.21253 62.8018 1.26598L62.8467 0.266993L62.8916 -0.731998C61.7048 -0.785341 60.7164 -0.83007 59.7142 -0.865866L59.6785 0.133497ZM62.8467 0.266993L62.7998 1.26589C67.4409 1.484 70.5634 2.21331 73.2848 3.26855L73.6463 2.33619L74.0079 1.40384C71.0602 0.260834 67.7216 -0.505019 62.8937 -0.731904L62.8467 0.266993ZM73.6463 2.33619L73.2871 3.26946C76.0995 4.35182 78.4538 5.80781 80.8248 8.17465L81.5313 7.46692L82.2378 6.75918C79.6607 4.18665 77.0668 2.58111 74.0055 1.40292L73.6463 2.33619ZM81.5313 7.46692L80.8305 8.18027C82.9903 10.302 84.6609 12.8696 85.7258 15.7038L86.6619 15.3521L87.598 15.0004C86.4308 11.8938 84.5995 9.07931 82.2321 6.75357L81.5313 7.46692ZM86.6619 15.3521L85.7295 15.7136C86.7847 18.435 87.5141 21.5576 87.7322 26.2034L88.7311 26.1565L89.73 26.1096C89.5031 21.2771 88.7373 17.9384 87.5943 14.9906L86.6619 15.3521ZM88.7311 26.1565L87.7321 26.2015C87.7855 27.3863 87.8298 28.3648 87.8652 29.3603L88.8645 29.3248L89.8639 29.2893C89.8281 28.2824 89.7834 27.294 89.73 26.1114L88.7311 26.1565ZM88.8645 29.3248L87.865 29.3557L87.8917 30.219L88.8913 30.1881L89.8908 30.1572L89.8641 29.2939L88.8645 29.3248ZM88.8913 30.1881L87.8917 30.2185C87.958 32.3923 87.9847 34.9207 87.9936 39.9262L88.9936 39.9244L89.9936 39.9227C89.9847 34.9159 89.958 32.3625 89.8908 30.1576L88.8913 30.1881ZM88.9936 39.9244L87.9936 39.9258L87.998 43.2454L88.998 43.2441L89.998 43.2427L89.9936 39.9231L88.9936 39.9244ZM88.998 43.2441H87.998V49.0734H88.998H89.998V43.2441H88.998ZM88.998 49.0734L87.998 49.0767C88.0089 52.3133 87.9748 55.5498 87.896 58.7854L88.8957 58.8098L89.8954 58.8341C89.9747 55.5801 90.0089 52.3251 89.998 49.0701L88.998 49.0734ZM88.8957 58.8098L87.8962 58.7789L87.8695 59.6421L88.869 59.673L89.8685 59.704L89.8952 58.8407L88.8957 58.8098ZM88.869 59.673L87.8696 59.6375C87.8342 60.6331 87.79 61.6115 87.7365 62.7963L88.7355 62.8414L89.7345 62.8864C89.7878 61.7039 89.8326 60.7155 89.8684 59.7086L88.869 59.673ZM88.7355 62.8414L87.7366 62.7945C87.5186 67.4381 86.7809 70.5573 85.7289 73.286L86.6619 73.6457L87.595 74.0055C88.7322 71.056 89.5074 67.7229 89.7344 62.8883L88.7355 62.8414ZM86.6619 73.6457L85.7258 73.294C84.6609 76.1282 82.9903 78.6958 80.8305 80.8176L81.5313 81.5309L82.2321 82.2443C84.5995 79.9185 86.4308 77.1041 87.598 73.9974L86.6619 73.6457ZM81.5313 81.5309L80.8179 80.8301C78.6962 82.99 76.1287 84.6606 73.2946 85.7255L73.6463 86.6617L73.9981 87.5977C77.1046 86.4305 79.919 84.5992 82.2447 82.2317L81.5313 81.5309ZM73.6463 86.6617L73.2848 85.7293C70.5634 86.7845 67.4409 87.5138 62.7998 87.7319L62.8467 88.7309L62.8937 89.7297C67.7216 89.5029 71.0602 88.737 74.0079 87.594L73.6463 86.6617ZM62.8467 88.7309L62.8046 87.7317L59.6364 87.8652L59.6785 88.8643L59.7206 89.8635L62.8888 89.73L62.8467 88.7309ZM59.6785 88.8643L59.6476 87.8648L58.7843 87.8915L58.8152 88.891L58.8461 89.8906L59.7094 89.8639L59.6785 88.8643ZM58.8152 88.891L58.7868 87.8914C56.6067 87.9534 54.0765 87.9845 49.0729 87.9934L49.0747 88.9934L49.0764 89.9934C54.0848 89.9845 56.6363 89.9533 58.8436 89.8906L58.8152 88.891ZM49.0747 88.9934L49.0733 87.9934L45.7538 87.9978L45.7551 88.9978L45.7565 89.9978L49.076 89.9934L49.0747 88.9934ZM45.7551 88.9978V87.9978H39.9304V88.9978V89.9978H45.7551V88.9978ZM39.9304 88.9978L39.9268 87.9978C36.689 88.0093 33.4512 87.9752 30.2143 87.8958L30.1898 88.8955L30.1653 89.8952C33.4208 89.9751 36.6774 90.0093 39.9339 89.9978L39.9304 88.9978ZM30.1898 88.8955L30.2207 87.896L29.3575 87.8693L29.3266 88.8688L29.2956 89.8683L30.1589 89.895L30.1898 88.8955ZM29.3266 88.8688L29.3644 87.8695C28.3118 87.8297 27.2595 87.7838 26.2075 87.7321L26.1583 88.7309L26.1092 89.7296C27.1687 89.7818 28.2286 89.8279 29.2887 89.8681L29.3266 88.8688ZM26.1583 88.7309L26.2053 87.7319C21.5642 87.5139 18.4415 86.7846 15.7153 85.7291L15.3543 86.6617L14.9932 87.5942C17.9449 88.737 21.2833 89.5029 26.1114 89.7297L26.1583 88.7309ZM15.3543 86.6617L15.7063 85.7257C12.8737 84.6602 10.3077 82.9896 8.18719 80.8303L7.4737 81.5309L6.76021 82.2316C9.08455 84.5985 11.8973 86.4297 15.0022 87.5976L15.3543 86.6617ZM7.4737 81.5309L8.17418 80.8173C6.01289 78.6959 4.34078 76.1283 3.27465 73.2937L2.33866 73.6457L1.40268 73.9977C2.5713 77.1048 4.40416 79.9193 6.77322 82.2446L7.4737 81.5309ZM2.33866 73.6457L3.27103 73.2842C2.21583 70.5628 1.48652 67.4402 1.26842 62.7945L0.269517 62.8414L-0.729383 62.8883C-0.50251 67.7208 0.263307 71.0594 1.4063 74.0072L2.33866 73.6457ZM0.269517 62.8414L1.26863 62.7993L1.13514 59.631L0.136024 59.673L-0.863089 59.7151L-0.729596 62.8835L0.269517 62.8414ZM0.136024 59.673L1.13569 59.6473L1.11344 58.784L0.113776 58.8098L-0.885892 58.8355L-0.863644 59.6988L0.136024 59.673ZM0.113776 58.8098L1.11346 58.7845C1.03166 55.5489 0.994683 52.3124 1.00253 49.0758L0.00253102 49.0734L-0.997466 49.071C-1.00536 52.326 -0.968165 55.581 -0.885905 58.835L0.113776 58.8098ZM0.00253102 49.0734H1.00253V39.9244H0.00253102H-0.997469V49.0734H0.00253102ZM0.00253102 39.9244L1.00252 39.9206C0.990242 36.6841 1.02278 33.4476 1.10014 30.212L0.100426 30.1881L-0.899288 30.1642C-0.977085 33.4182 -1.00981 36.6732 -0.997462 39.9282L0.00253102 39.9244ZM0.100426 30.1881L1.09978 30.2241L1.13092 29.3608L0.131575 29.3248L-0.867775 29.2887L-0.898923 30.152L0.100426 30.1881ZM0.131575 29.3248L1.13094 29.3603C1.16634 28.3648 1.21061 27.3863 1.26405 26.2015L0.265068 26.1565L-0.733916 26.1114C-0.787264 27.294 -0.831994 28.2824 -0.867794 29.2893L0.131575 29.3248ZM0.265068 26.1565L1.26397 26.2034C1.48206 21.5579 2.2113 18.4395 3.26677 15.7132L2.33421 15.3521L1.40166 14.9911C0.258938 17.9428 -0.506946 21.2768 -0.733832 26.1096L0.265068 26.1565ZM2.33421 15.3521L3.26996 15.7048C4.33858 12.8694 6.01363 10.3017 8.17799 8.18122L7.47815 7.46692L6.77832 6.75261C4.40589 9.07698 2.56981 11.8915 1.39847 14.9995L2.33421 15.3521ZM7.47815 7.46692L8.19176 8.16746C10.311 6.00868 12.8756 4.33806 15.7066 3.27205L15.3543 2.33619L15.0019 1.40034C11.8986 2.56883 9.08753 4.40006 6.76454 6.76638L7.47815 7.46692ZM15.3543 2.33619L15.7153 3.26874C18.4416 2.21325 21.5599 1.48399 26.2052 1.26589L26.1583 0.266993L26.1114 -0.731906C21.2787 -0.505014 17.9449 0.260893 14.9932 1.40364L15.3543 2.33619ZM26.1583 0.266993L26.2034 1.26598C27.3879 1.21254 28.371 1.16826 29.3622 1.13286L29.3266 0.133497L29.2909 -0.865866C28.2886 -0.83007 27.296 -0.785348 26.1132 -0.731991L26.1583 0.266993ZM29.3266 0.133497L29.3575 1.13302L30.2207 1.10632L30.1898 0.106797L30.1589 -0.892725L29.2956 -0.866025L29.3266 0.133497ZM30.1898 0.106797L30.2142 1.1065C33.4497 1.02766 36.6861 0.993641 39.9226 1.00444L39.9259 0.00444957L39.9293 -0.995545C36.6743 -1.00641 33.4194 -0.972193 30.1655 -0.892906L30.1898 0.106797ZM39.9259 0.00444957L39.9264 1.00445L49.0751 1L49.0747 0L49.0742 -1L39.9254 -0.99555L39.9259 0.00444957ZM44.5003 22.2495V21.2495C38.3343 21.2495 32.4208 23.699 28.0608 28.0591L28.768 28.7662L29.4751 29.4733C33.46 25.4882 38.8647 23.2495 44.5003 23.2495V22.2495ZM28.768 28.7662L28.0608 28.0591C23.7008 32.4192 21.2514 38.3328 21.2514 44.4989H22.2514H23.2514C23.2514 38.8632 25.4901 33.4583 29.4751 29.4733L28.768 28.7662ZM22.2514 44.4989H21.2514C21.2514 50.6651 23.7008 56.5786 28.0608 60.9388L28.768 60.2317L29.4751 59.5246C25.4901 55.5395 23.2514 50.1346 23.2514 44.4989H22.2514ZM28.768 60.2317L28.0608 60.9388C32.4208 65.2989 38.3343 67.7484 44.5003 67.7484V66.7484V65.7484C38.8647 65.7484 33.46 63.5096 29.4751 59.5246L28.768 60.2317ZM44.5003 66.7484V67.7484C50.6663 67.7484 56.5797 65.2989 60.9397 60.9388L60.2326 60.2317L59.5255 59.5246C55.5406 63.5096 50.1358 65.7484 44.5003 65.7484V66.7484ZM60.2326 60.2317L60.9397 60.9388C65.2997 56.5786 67.7492 50.6651 67.7492 44.4989H66.7492H65.7492C65.7492 50.1346 63.5104 55.5395 59.5255 59.5246L60.2326 60.2317ZM66.7492 44.4989H67.7492C67.7492 38.3328 65.2997 32.4192 60.9397 28.0591L60.2326 28.7662L59.5255 29.4733C63.5104 33.4583 65.7492 38.8632 65.7492 44.4989H66.7492ZM60.2326 28.7662L60.9397 28.0591C56.5797 23.699 50.6663 21.2495 44.5003 21.2495V22.2495V23.2495C50.1358 23.2495 55.5406 25.4882 59.5255 29.4733L60.2326 28.7662ZM44.5003 31.1492L44.5005 32.1492C46.1222 32.149 47.7281 32.4681 49.2265 33.0885L49.609 32.1646L49.9916 31.2406C48.2505 30.5198 46.3845 30.1489 44.5001 30.1492L44.5003 31.1492ZM49.609 32.1646L49.2265 33.0885C50.7249 33.7089 52.0864 34.6183 53.2333 35.7649L53.9403 35.0577L54.6473 34.3505C53.3147 33.0182 51.7326 31.9615 49.9916 31.2406L49.609 32.1646ZM53.9403 35.0577L53.2333 35.7649C54.3803 36.9115 55.2901 38.2728 55.911 39.771L56.8348 39.3882L57.7586 39.0053C57.0372 37.2645 55.98 35.6828 54.6473 34.3505L53.9403 35.0577ZM56.8348 39.3882L55.911 39.771C56.5319 41.2692 56.8516 42.8751 56.8518 44.4969L57.8518 44.4967L58.8518 44.4965C58.8515 42.6121 58.4801 40.7462 57.7586 39.0053L56.8348 39.3882ZM57.8518 44.4967L56.8518 44.4969C56.8521 46.1187 56.533 47.7246 55.9126 49.223L56.8365 49.6056L57.7605 49.9881C58.4813 48.247 58.8521 46.381 58.8518 44.4965L57.8518 44.4967ZM56.8365 49.6056L55.9126 49.223C55.2922 50.7215 54.3828 52.083 53.2363 53.23L53.9435 53.937L54.6507 54.644C55.983 53.3113 57.0396 51.7292 57.7605 49.9881L56.8365 49.6056ZM53.9435 53.937L53.2363 53.23C52.0897 54.377 50.7285 55.2869 49.2303 55.9077L49.6131 56.8316L49.996 57.7554C51.7368 57.0339 53.3185 55.9767 54.6507 54.644L53.9435 53.937ZM49.6131 56.8316L49.2303 55.9077C47.7321 56.5286 46.1263 56.8483 44.5046 56.8486L44.5047 57.8486L44.5049 58.8486C46.3893 58.8483 48.2552 58.4768 49.996 57.7554L49.6131 56.8316ZM44.5047 57.8486V56.8486C41.2295 56.8486 38.0884 55.5475 35.7725 53.2315L35.0653 53.9386L34.3582 54.6457C37.0492 57.3368 40.6991 58.8486 44.5047 58.8486V57.8486ZM35.0653 53.9386L35.7725 53.2315C33.4565 50.9155 32.1554 47.7743 32.1554 44.4989H31.1554H30.1554C30.1554 48.3047 31.6672 51.9546 34.3582 54.6457L35.0653 53.9386ZM31.1554 44.4989H32.1554C32.1554 41.2236 33.4565 38.0824 35.7725 35.7664L35.0653 35.0593L34.3582 34.3522C31.6672 37.0433 30.1554 40.6932 30.1554 44.4989H31.1554ZM35.0653 35.0593L35.7725 35.7664C38.0884 33.4504 41.2295 32.1492 44.5047 32.1492V31.1492V30.1492C40.6991 30.1492 37.0492 31.6611 34.3582 34.3522L35.0653 35.0593ZM67.8661 15.5746V14.5746C66.1256 14.5746 64.4565 15.266 63.2259 16.4967L63.933 17.2038L64.6401 17.9109C65.4957 17.0553 66.6561 16.5746 67.8661 16.5746V15.5746ZM63.933 17.2038L63.2259 16.4967C61.9952 17.7274 61.3038 19.3965 61.3038 21.137H62.3038H63.3038C63.3038 19.927 63.7845 18.7665 64.6401 17.9109L63.933 17.2038ZM62.3038 21.137H61.3038C61.3038 22.8774 61.9952 24.5466 63.2259 25.7773L63.933 25.0702L64.6401 24.3631C63.7845 23.5075 63.3038 22.347 63.3038 21.137H62.3038ZM63.933 25.0702L63.2259 25.7773C64.4565 27.008 66.1256 27.6994 67.8661 27.6994V26.6994V25.6994C66.6561 25.6994 65.4957 25.2187 64.6401 24.3631L63.933 25.0702ZM67.8661 26.6994V27.6994C69.6065 27.6994 71.2756 27.008 72.5063 25.7773L71.7991 25.0702L71.092 24.3631C70.2364 25.2187 69.076 25.6994 67.8661 25.6994V26.6994ZM71.7991 25.0702L72.5063 25.7773C73.7369 24.5466 74.4283 22.8774 74.4283 21.137H73.4283H72.4283C72.4283 22.347 71.9476 23.5075 71.092 24.3631L71.7991 25.0702ZM73.4283 21.137H74.4283C74.4283 19.3965 73.7369 17.7274 72.5063 16.4967L71.7991 17.2038L71.092 17.9109C71.9476 18.7665 72.4283 19.927 72.4283 21.137H73.4283ZM71.7991 17.2038L72.5063 16.4967C71.2756 15.266 69.6065 14.5746 67.8661 14.5746V15.5746V16.5746C69.076 16.5746 70.2364 17.0553 71.092 17.9109L71.7991 17.2038Z" fill="url(#paint1_linear_2099_192)" mask="url(#path-1-inside-1_2099_192)"/>
<defs>
<linearGradient id="paint0_linear_2099_192" x1="44.5" y1="0" x2="44.5" y2="89" gradientUnits="userSpaceOnUse">
<stop stop-color="white" stop-opacity="0.12"/>
<stop offset="1" stop-color="#696969" stop-opacity="0.12"/>
</linearGradient>
<linearGradient id="paint1_linear_2099_192" x1="44.5" y1="0" x2="44.5" y2="89" gradientUnits="userSpaceOnUse">
<stop stop-color="white" stop-opacity="0.12"/>
<stop offset="1" stop-color="white" stop-opacity="0"/>
</linearGradient>
</defs>
</svg>
