<svg width="20" height="17" viewBox="0 0 20 17" fill="none" xmlns="http://www.w3.org/2000/svg">
<path id="Vector" d="M8.92328 0.577156C9.00076 0.654549 9.06222 0.746454 9.10416 0.847616C9.14609 0.948778 9.16768 1.05721 9.16768 1.16672C9.16768 1.27623 9.14609 1.38467 9.10416 1.48583C9.06222 1.58699 9.00076 1.67889 8.92328 1.75628L2.84535 7.83317L19.1667 7.83317C19.3877 7.83317 19.5997 7.92096 19.7559 8.07724C19.9122 8.23351 20 8.44547 20 8.66648C20 8.88748 19.9122 9.09944 19.7559 9.25571C19.5997 9.41199 19.3877 9.49978 19.1667 9.49978H2.84535L8.92328 15.5767C9.07964 15.733 9.16749 15.9451 9.16749 16.1662C9.16749 16.3874 9.07964 16.5994 8.92328 16.7558C8.76692 16.9122 8.55485 17 8.33372 17C8.11259 17 7.90051 16.9122 7.74415 16.7558L0.244397 9.25604C0.16692 9.17865 0.105456 9.08674 0.0635204 8.98558C0.0215848 8.88442 0 8.77599 0 8.66648C0 8.55697 0.0215848 8.44853 0.0635204 8.34737C0.105456 8.24621 0.16692 8.1543 0.244397 8.07691L7.74415 0.577156C7.82154 0.499678 7.91345 0.438213 8.01461 0.396278C8.11577 0.354343 8.22421 0.33276 8.33372 0.33276C8.44323 0.33276 8.55166 0.354343 8.65282 0.396278C8.75398 0.438213 8.84589 0.499678 8.92328 0.577156Z" fill="#4195F1"/>
</svg>
