<svg width="89" height="93" viewBox="0 0 89 93" fill="none" xmlns="http://www.w3.org/2000/svg">
<path d="M0.59375 29.7939H19.5801C19.6046 29.794 19.6281 29.8031 19.6455 29.8203V29.8213C19.663 29.8388 19.6728 29.862 19.6729 29.8867V91.5938C19.6728 91.6184 19.663 91.6417 19.6455 91.6592C19.628 91.6766 19.6048 91.6865 19.5801 91.6865H0.59375C0.542461 91.6865 0.500145 91.645 0.5 91.5938V29.8867C0.500025 29.8621 0.510009 29.8387 0.527344 29.8213C0.544847 29.8038 0.568995 29.7939 0.59375 29.7939ZM31.4463 29.7939H50.4336C50.4583 29.794 50.4816 29.8039 50.499 29.8213C50.5165 29.8388 50.5263 29.862 50.5264 29.8867V37.2051L51.2236 36.9062L57.4229 34.248L57.4219 34.2471C60.6492 32.8694 64.073 32.0061 67.5674 31.6855L67.5664 31.6846C78.7413 30.6712 88.4997 39.4554 88.5 50.6768V91.5938C88.5 91.6059 88.4977 91.6179 88.4932 91.6289L88.4727 91.6592C88.4552 91.6767 88.431 91.6865 88.4062 91.6865H69.4199C69.3687 91.6865 69.3273 91.645 69.3271 91.5938V58.3672C69.3271 55.8742 68.3361 53.4826 66.5732 51.7197C64.8104 49.9571 62.4196 48.9668 59.9268 48.9668C57.4339 48.9668 55.0431 49.9571 53.2803 51.7197C51.5174 53.4826 50.5264 55.8742 50.5264 58.3672V91.5938C50.5263 91.6184 50.5165 91.6417 50.499 91.6592C50.4816 91.6766 50.4583 91.6865 50.4336 91.6865H31.4463C31.3952 91.6863 31.3537 91.6449 31.3535 91.5938V29.8867C31.3535 29.8621 31.3635 29.8388 31.3809 29.8213C31.3983 29.8039 31.4217 29.794 31.4463 29.7939ZM10.0869 1.31348C12.6293 1.31354 15.0675 2.32345 16.8652 4.12109C18.6631 5.91894 19.6729 8.35785 19.6729 10.9004C19.6728 13.4428 18.663 15.8809 16.8652 17.6787C15.0674 19.4765 12.6294 20.4863 10.0869 20.4863C7.54437 20.4863 5.10547 19.4766 3.30762 17.6787C1.50998 15.8809 0.500065 13.4427 0.5 10.9004C0.5 8.35785 1.50977 5.91894 3.30762 4.12109C5.10547 2.32324 7.54437 1.31348 10.0869 1.31348Z" fill="url(#paint0_linear_2099_203)" stroke="url(#paint1_linear_2099_203)"/>
<defs>
<linearGradient id="paint0_linear_2099_203" x1="44.5" y1="0.813477" x2="44.5" y2="92.1868" gradientUnits="userSpaceOnUse">
<stop stop-color="white" stop-opacity="0.12"/>
<stop offset="1" stop-color="#696969" stop-opacity="0.12"/>
</linearGradient>
<linearGradient id="paint1_linear_2099_203" x1="44.5" y1="0.813477" x2="44.5" y2="92.1868" gradientUnits="userSpaceOnUse">
<stop stop-color="white" stop-opacity="0.12"/>
<stop offset="1" stop-color="white" stop-opacity="0"/>
</linearGradient>
</defs>
</svg>
