<svg width="15" height="14" viewBox="0 0 15 14" fill="none" xmlns="http://www.w3.org/2000/svg">
<g id="Group 44">
<path id="Vector" fill-rule="evenodd" clip-rule="evenodd" d="M10.1504 6.9994C10.1504 6.86016 10.0951 6.72663 9.99662 6.62817C9.89817 6.52971 9.76463 6.4744 9.62539 6.4744H1.94429L3.31699 5.2984C3.36939 5.25354 3.41244 5.1988 3.44368 5.1373C3.47492 5.07581 3.49374 5.00876 3.49907 4.93999C3.5044 4.87122 3.49614 4.80207 3.47474 4.73649C3.45335 4.67092 3.41925 4.6102 3.37439 4.5578C3.32953 4.5054 3.27479 4.46235 3.21329 4.43111C3.1518 4.39987 3.08475 4.38105 3.01598 4.37572C2.94721 4.37039 2.87806 4.37865 2.81248 4.40005C2.74691 4.42144 2.68619 4.45554 2.63379 4.5004L0.18379 6.6004C0.126156 6.64969 0.0798835 6.71087 0.0481562 6.77975C0.0164288 6.84863 0 6.92357 0 6.9994C0 7.07523 0.0164288 7.15017 0.0481562 7.21905C0.0798835 7.28793 0.126156 7.34911 0.18379 7.3984L2.63379 9.4984C2.73961 9.589 2.87709 9.63385 3.01598 9.62308C3.15487 9.61232 3.28379 9.54682 3.37439 9.441C3.46499 9.33518 3.50984 9.1977 3.49907 9.05881C3.48831 8.91992 3.42281 8.791 3.31699 8.7004L1.94499 7.5244H9.62539C9.76463 7.5244 9.89817 7.46909 9.99662 7.37063C10.0951 7.27217 10.1504 7.13864 10.1504 6.9994Z" fill="white"/>
<path id="Vector_2" d="M5.42676 4.2C5.42676 4.6914 5.42676 4.9371 5.54506 5.1142C5.59601 5.19035 5.66141 5.25575 5.73756 5.3067C5.91466 5.425 6.16036 5.425 6.65176 5.425H9.62676C10.0445 5.425 10.4451 5.59094 10.7405 5.88631C11.0358 6.18168 11.2018 6.58228 11.2018 7C11.2018 7.41772 11.0358 7.81832 10.7405 8.11369C10.4451 8.40906 10.0445 8.575 9.62676 8.575H6.65176C6.16036 8.575 5.91466 8.575 5.73756 8.6926C5.66134 8.74376 5.59594 8.8094 5.54506 8.8858C5.42676 9.0629 5.42676 9.3086 5.42676 9.8C5.42676 11.7796 5.42676 12.7701 6.04206 13.3847C6.65666 14 7.64646 14 9.62606 14H10.3261C12.3071 14 13.2962 14 13.9115 13.3847C14.5268 12.7701 14.5268 11.7796 14.5268 9.8V4.2C14.5268 2.2204 14.5268 1.2299 13.9115 0.6153C13.2962 0.000699949 12.3064 0 10.3268 0H9.62676C7.64646 0 6.65666 -4.17233e-08 6.04206 0.6153C5.42676 1.2299 5.42676 2.2204 5.42676 4.2Z" fill="white"/>
</g>
</svg>
