<svg width="32" height="32" viewBox="0 0 32 32" fill="none" xmlns="http://www.w3.org/2000/svg">
<g id="Layer_1">
<g id="Group">
<path id="Vector" d="M14.9335 5.73341C15.3335 6.26675 15.8668 6.53341 16.4002 6.80008C16.1335 7.46675 16.0002 8.00008 15.8668 8.53341C15.7335 8.53341 15.4668 8.53341 15.3335 8.53341H15.2002C14.8002 8.53341 14.2668 8.40008 13.8668 8.40008C13.7335 8.13341 13.4668 7.73341 13.3335 7.46675C13.3335 7.33341 13.2002 7.20008 13.2002 7.20008C13.7335 6.93341 14.4002 6.40008 14.9335 5.73341ZM14.9335 2.66675C14.2668 2.66675 13.6002 2.80008 12.9335 3.86675C12.4002 4.80008 11.6002 4.80008 10.4002 4.80008C9.3335 4.80008 9.06683 5.60008 9.60016 6.40008C9.86683 6.80008 11.6002 9.73341 12.0002 10.4001C12.4002 10.9334 14.0002 11.3334 15.2002 11.3334C15.3335 11.3334 15.3335 11.3334 15.4668 11.3334C16.6668 11.3334 18.5335 10.8001 18.4002 9.86675C18.2668 8.13341 20.0002 5.86675 20.2668 5.60008C20.6668 5.06675 20.5335 3.86675 19.4668 3.86675C19.2002 3.86675 18.9335 3.86675 18.6668 4.00008C18.4002 4.13341 18.0002 4.26675 17.6002 4.26675C17.3335 4.26675 17.0668 4.13341 16.9335 3.86675C16.1335 2.80008 15.4668 2.66675 14.9335 2.66675Z" fill="black"/>
</g>
<g id="Group_2">
<path id="Vector_2" d="M12.0001 10.4001C12.4001 11.0668 14.2668 11.3334 15.4668 11.3334C16.6668 11.3334 18.5334 10.8001 18.4001 9.86677C18.2668 8.13343 20.0001 5.86676 20.2668 5.6001C19.7334 5.86676 19.3334 6.26676 18.8001 6.13343C18.5334 6.4001 17.8668 8.0001 16.5334 8.0001C15.6001 8.0001 15.4668 6.66676 14.8001 6.66676C14.1334 6.66676 14.0001 7.6001 13.4668 7.73343C12.2668 8.0001 11.3334 6.8001 10.6668 6.0001C10.4001 6.0001 9.86676 5.6001 9.6001 6.53343C9.86676 6.8001 11.6001 9.73343 12.0001 10.4001Z" fill="black"/>
</g>
<path id="Vector_3" d="M18.1332 11.7334C17.1998 12.1334 16.1332 12.4001 15.4665 12.4001H15.1998C14.9332 12.4001 13.7332 12.4001 12.6665 12.0001C6.93317 13.7334 2.6665 19.6001 2.6665 23.7334C2.6665 28.6667 8.6665 29.3334 15.9998 29.3334C23.3332 29.3334 29.3332 28.6667 29.3332 23.7334C29.3332 19.3334 24.5332 13.0667 18.1332 11.7334ZM15.4665 19.3334C15.5998 19.4667 15.8665 19.7334 16.2665 20.0001C17.0665 20.2667 17.7332 20.6667 18.1332 21.0667C18.5332 21.4667 18.7998 22.1334 18.7998 22.9334C18.7998 23.6001 18.5332 24.2667 18.1332 24.6667C17.7332 25.0667 17.1998 25.3334 16.5332 25.4667V26.6667H15.5998V25.4667C14.9332 25.3334 14.2665 25.0667 13.8665 24.6667C13.4665 24.2667 13.1998 23.4667 13.1998 22.6667H14.9332C14.9332 23.2001 15.0665 23.6001 15.1998 23.8667C15.3332 24.1334 15.7332 24.2667 15.9998 24.2667C16.2665 24.2667 16.5332 24.1334 16.6665 24.0001C16.7998 23.7334 16.9332 23.4667 16.9332 23.2001C16.9332 22.8001 16.7998 22.5334 16.6665 22.4001C16.5332 22.1334 16.2665 22.0001 15.8665 21.7334C15.0665 21.4667 14.3998 21.0667 13.9998 20.6667C13.5998 20.2667 13.3332 19.6001 13.3332 18.9334C13.3332 18.2667 13.5998 17.6001 13.9998 17.2001C14.3998 16.8001 14.9332 16.5334 15.5998 16.4001V15.0667H16.5332V16.4001C17.1998 16.5334 17.7332 16.8001 18.1332 17.3334C18.5332 17.8667 18.6665 18.4001 18.6665 19.2001H16.9332C16.9332 18.8001 16.7998 18.4001 16.6665 18.1334C16.5332 17.8667 16.2665 17.7334 15.9998 17.7334C15.7332 17.7334 15.4665 17.8667 15.3332 18.0001C15.1998 18.2667 15.1998 18.5334 15.1998 18.8001C15.3332 18.9334 15.3332 19.2001 15.4665 19.3334Z" fill="black"/>
</g>
</svg>
