<svg width="14" height="15" viewBox="0 0 14 15" fill="none" xmlns="http://www.w3.org/2000/svg">
<path id="Vector" d="M6.3 11H7.7V6.8H6.3V11ZM7 5.4C7.19833 5.4 7.3647 5.3328 7.4991 5.1984C7.6335 5.064 7.70047 4.89787 7.7 4.7C7.69953 4.50213 7.63233 4.336 7.4984 4.2016C7.36447 4.0672 7.19833 4 7 4C6.80167 4 6.63553 4.0672 6.5016 4.2016C6.36767 4.336 6.30047 4.50213 6.3 4.7C6.29953 4.89787 6.36673 5.06423 6.5016 5.1991C6.63647 5.33397 6.8026 5.40093 7 5.4ZM7 14.5C6.03167 14.5 5.12167 14.3161 4.27 13.9484C3.41833 13.5807 2.6775 13.082 2.0475 12.4525C1.4175 11.823 0.918867 11.0821 0.551601 10.23C0.184334 9.37786 0.000467553 8.46786 8.86075e-07 7.5C-0.00046578 6.53213 0.183401 5.62213 0.551601 4.77C0.919801 3.91787 1.41843 3.17703 2.0475 2.5475C2.67657 1.91797 3.4174 1.41933 4.27 1.0516C5.1226 0.683867 6.0326 0.5 7 0.5C7.9674 0.5 8.8774 0.683867 9.73 1.0516C10.5826 1.41933 11.3234 1.91797 11.9525 2.5475C12.5816 3.17703 13.0804 3.91787 13.4491 4.77C13.8178 5.62213 14.0014 6.53213 14 7.5C13.9986 8.46786 13.8147 9.37786 13.4484 10.23C13.0821 11.0821 12.5834 11.823 11.9525 12.4525C11.3216 13.082 10.5807 13.5809 9.73 13.9491C8.87926 14.3173 7.96927 14.5009 7 14.5ZM7 13.1C8.56333 13.1 9.8875 12.5575 10.9725 11.4725C12.0575 10.3875 12.6 9.06333 12.6 7.5C12.6 5.93667 12.0575 4.6125 10.9725 3.5275C9.8875 2.4425 8.56333 1.9 7 1.9C5.43667 1.9 4.1125 2.4425 3.0275 3.5275C1.9425 4.6125 1.4 5.93667 1.4 7.5C1.4 9.06333 1.9425 10.3875 3.0275 11.4725C4.1125 12.5575 5.43667 13.1 7 13.1Z" fill="black"/>
</svg>
