<svg width="21" height="20" viewBox="0 0 21 20" fill="none" xmlns="http://www.w3.org/2000/svg">
<g id="Group">
<path id="Vector" d="M15.6033 8.02379C16.1585 7.46863 16.1585 6.57621 16.1585 4.78947C16.1585 3.00274 16.1585 2.11032 15.6033 1.55516M15.6033 8.02379C15.0481 8.57895 14.1557 8.57895 12.369 8.57895H8.57951C6.79278 8.57895 5.90035 8.57895 5.3452 8.02379M15.6033 1.55516C15.0481 1 14.1557 1 12.369 1H8.57951C6.79278 1 5.90035 1 5.3452 1.55516M5.3452 1.55516C4.79004 2.11032 4.79004 3.00274 4.79004 4.78947C4.79004 6.57621 4.79004 7.46863 5.3452 8.02379M11.4216 4.78947C11.4216 5.04073 11.3218 5.2817 11.1441 5.45936C10.9665 5.63703 10.7255 5.73684 10.4742 5.73684C10.223 5.73684 9.98202 5.63703 9.80436 5.45936C9.62669 5.2817 9.52688 5.04073 9.52688 4.78947C9.52688 4.53822 9.62669 4.29725 9.80436 4.11958C9.98202 3.94192 10.223 3.84211 10.4742 3.84211C10.7255 3.84211 10.9665 3.94192 11.1441 4.11958C11.3218 4.29725 11.4216 4.53822 11.4216 4.78947Z" stroke="black" stroke-width="1.5"/>
<path id="Vector_2" d="M16.1581 3.84211C15.4043 3.84211 14.6814 3.54267 14.1484 3.00967C13.6154 2.47667 13.316 1.75377 13.316 1M16.1581 5.73684C15.4043 5.73684 14.6814 6.03628 14.1484 6.56928C13.6154 7.10227 13.316 7.82517 13.316 8.57895M4.78965 3.84211C5.54343 3.84211 6.26633 3.54267 6.79933 3.00967C7.33232 2.47667 7.63176 1.75377 7.63176 1M4.78965 5.73684C5.54343 5.73684 6.26633 6.03628 6.79933 6.56928C7.33232 7.10227 7.63176 7.82517 7.63176 8.57895M3.84229 17.4728H5.98334C6.94018 17.4728 7.90934 17.5733 8.8406 17.7646C10.5034 18.1052 12.2139 18.143 13.8901 17.8764C14.7124 17.7438 15.5195 17.5401 16.2509 17.1877C16.9103 16.8684 17.7184 16.4203 18.2612 15.9173C18.8031 15.4152 19.3678 14.5938 19.7675 13.9515C20.1124 13.4001 19.9457 12.7246 19.4019 12.3144C19.0961 12.0926 18.728 11.9731 18.3503 11.9731C17.9725 11.9731 17.6045 12.0926 17.2987 12.3144L15.5868 13.6076C14.9237 14.1097 14.1989 14.5711 13.3359 14.7084C13.2317 14.7248 13.1227 14.7397 13.009 14.7529M13.009 14.7529L12.9048 14.7643M13.009 14.7529C13.1606 14.7119 13.2996 14.6337 13.4135 14.5256C13.5565 14.4022 13.6733 14.2514 13.757 14.0821C13.8406 13.9128 13.8895 13.7285 13.9006 13.54C13.9117 13.3515 13.8849 13.1626 13.8218 12.9847C13.7586 12.8067 13.6604 12.6432 13.5329 12.5039C13.4095 12.3668 13.2657 12.2496 13.1066 12.1562C10.4568 10.5751 6.33292 11.7792 3.84229 13.546M13.009 14.7529C12.9748 14.7606 12.9399 14.7644 12.9048 14.7643M12.9048 14.7643C12.3335 14.8216 11.7579 14.8228 11.1863 14.7681" stroke="black" stroke-width="1.5" stroke-linecap="round"/>
<path id="Vector_3" d="M3.84211 12.8421C3.84211 12.0572 3.20588 11.421 2.42105 11.421C1.63623 11.421 1 12.0572 1 12.8421V17.5789C1 18.3637 1.63623 19 2.42105 19C3.20588 19 3.84211 18.3637 3.84211 17.5789V12.8421Z" stroke="black" stroke-width="1.5"/>
</g>
</svg>
