<svg width="32" height="32" viewBox="0 0 32 32" fill="none" xmlns="http://www.w3.org/2000/svg">
<g id="Frame">
<path id="Vector" fill-rule="evenodd" clip-rule="evenodd" d="M3.99951 6.66663C3.99951 4.45749 5.79037 2.66663 7.99951 2.66663C10.2086 2.66663 11.9995 4.45749 11.9995 6.66663C11.9995 8.87576 10.2086 10.6666 7.99951 10.6666C5.79037 10.6666 3.99951 8.87576 3.99951 6.66663ZM7.99951 5.33329C7.26313 5.33329 6.66618 5.93025 6.66618 6.66663C6.66618 7.403 7.26313 7.99996 7.99951 7.99996C8.73589 7.99996 9.33285 7.403 9.33285 6.66663C9.33285 5.93025 8.73589 5.33329 7.99951 5.33329Z" fill="black"/>
<path id="Vector_2" fill-rule="evenodd" clip-rule="evenodd" d="M19.9995 6.66663C19.9995 4.45749 21.7903 2.66663 23.9995 2.66663C26.2086 2.66663 27.9995 4.45749 27.9995 6.66663C27.9995 8.87576 26.2086 10.6666 23.9995 10.6666C21.7903 10.6666 19.9995 8.87576 19.9995 6.66663ZM23.9995 5.33329C23.2631 5.33329 22.6662 5.93025 22.6662 6.66663C22.6662 7.403 23.2631 7.99996 23.9995 7.99996C24.7359 7.99996 25.3328 7.403 25.3328 6.66663C25.3328 5.93025 24.7359 5.33329 23.9995 5.33329Z" fill="black"/>
<path id="Vector_3" fill-rule="evenodd" clip-rule="evenodd" d="M10.6665 16C10.6665 13.0544 13.0543 10.6666 15.9998 10.6666C18.9454 10.6666 21.3331 13.0544 21.3331 16C21.3331 18.9454 18.9454 21.3333 15.9998 21.3333C13.0543 21.3333 10.6665 18.9454 10.6665 16ZM15.9998 13.3333C14.5271 13.3333 13.3332 14.5272 13.3332 16C13.3332 17.4728 14.5271 18.6666 15.9998 18.6666C17.4726 18.6666 18.6665 17.4728 18.6665 16C18.6665 14.5272 17.4726 13.3333 15.9998 13.3333Z" fill="black"/>
<path id="Vector_4" d="M1.60021 15.1984C3.05752 13.2588 5.38172 12 7.99955 12H9.33288V14.6667H7.99955C6.25576 14.6667 4.7075 15.5021 3.7322 16.8003L2.9313 17.8663L0.799316 16.2644L1.60021 15.1984Z" fill="black"/>
<path id="Vector_5" d="M22.6665 12H23.9998C26.618 12 28.9425 13.2591 30.3997 15.1992L31.2005 16.2653L29.0684 17.8668L28.2676 16.8008C27.2922 15.5024 25.7438 14.6667 23.9998 14.6667H22.6665V12Z" fill="black"/>
<path id="Vector_6" d="M7.24473 27.2372C9.17 24.477 12.3728 22.6666 15.9987 22.6666C19.6247 22.6666 22.8275 24.477 24.7527 27.2372L25.5155 28.3308L23.3284 29.8564L22.5656 28.7628C21.1176 26.6869 18.7161 25.3333 15.9987 25.3333C13.2813 25.3333 10.8798 26.6869 9.43189 28.7628L8.66909 29.8564L6.48193 28.3308L7.24473 27.2372Z" fill="black"/>
</g>
</svg>
