<svg width="28" height="26" viewBox="0 0 24 14" fill="none" xmlns="http://www.w3.org/2000/svg">
<path d="M19.125 7.375C20.4691 7.375 21.5588 6.28537 21.5588 4.94125C21.5588 3.59713 20.4691 2.5075 19.125 2.5075C17.7809 2.5075 16.6912 3.59713 16.6912 4.94125C16.6912 6.28537 17.7809 7.375 19.125 7.375Z" fill="black"/>
<path d="M4.875 7.375C6.21912 7.375 7.30875 6.28537 7.30875 4.94125C7.30875 3.59713 6.21912 2.5075 4.875 2.5075C3.53088 2.5075 2.44125 3.59713 2.44125 4.94125C2.44125 6.28537 3.53088 7.375 4.875 7.375Z" fill="black"/>
<path d="M6.4875 9.85563C6.43375 9.93188 6.38125 10.0094 6.33 10.0881C5.62334 11.1786 5.24819 12.4506 5.25 13.75H18.75C18.7513 12.4573 18.3796 11.1916 17.6794 10.105C17.6281 10.0262 17.5756 9.94875 17.5219 9.8725C16.8985 8.99033 16.0725 8.27066 15.1132 7.77395C14.154 7.27724 13.0896 7.01799 12.0094 7.01799C10.9292 7.01799 9.86474 7.27724 8.90551 7.77395C7.94628 8.27066 7.12027 8.99033 6.49687 9.8725L6.4875 9.85563Z" fill="black"/>
<path d="M0 12.25H3.88875C4.21843 10.4735 5.1222 8.85435 6.46125 7.64125C5.72714 7.38864 4.94332 7.315 4.17501 7.42648C3.4067 7.53795 2.67612 7.83131 2.04408 8.28214C1.41204 8.73297 0.896804 9.32824 0.541263 10.0184C0.185722 10.7086 0.000153044 11.4736 0 12.25Z" fill="black"/>
<path d="M12 7C13.8609 7 15.3694 5.49148 15.3694 3.63063C15.3694 1.76977 13.8609 0.261253 12 0.261253C10.1391 0.261253 8.63062 1.76977 8.63062 3.63063C8.63062 5.49148 10.1391 7 12 7Z" fill="black"/>
<path d="M19.125 7.375C18.5852 7.37531 18.0491 7.46528 17.5387 7.64125C18.8778 8.85435 19.7816 10.4735 20.1112 12.25H24C24 10.9571 23.4864 9.71709 22.5721 8.80286C21.6579 7.88862 20.4179 7.375 19.125 7.375Z" fill="black"/>
</svg>
