<svg width="17" height="16" viewBox="0 0 17 16" fill="none" xmlns="http://www.w3.org/2000/svg">
<path id="Vector" d="M12.9922 11.5128L16.3657 14.8855L15.2512 16L11.8785 12.6266C10.6236 13.6325 9.06272 14.1797 7.45437 14.1774C3.5414 14.1774 0.365662 11.0017 0.365662 7.08871C0.365662 3.17574 3.5414 0 7.45437 0C11.3673 0 14.5431 3.17574 14.5431 7.08871C14.5454 8.69706 13.9982 10.2579 12.9922 11.5128ZM11.4122 10.9284C12.4116 9.90033 12.9698 8.52249 12.9678 7.08871C12.9678 4.04293 10.5002 1.57527 7.45437 1.57527C4.40859 1.57527 1.94093 4.04293 1.94093 7.08871C1.94093 10.1345 4.40859 12.6021 7.45437 12.6021C8.88815 12.6042 10.266 12.046 11.2941 11.0466L11.4122 10.9284Z" fill="black" fill-opacity="0.4"/>
</svg>
