<svg width="39" height="39" viewBox="0 0 39 39" fill="none" xmlns="http://www.w3.org/2000/svg">
<g id="Layer_x0020_1">
<g id="_445047880">
<path id="Vector" d="M34.3697 0H4.13027C1.84918 0 0 1.84918 0 4.13027V34.3697C0 36.6508 1.84918 38.5 4.13027 38.5H34.3697C36.6508 38.5 38.5 36.6508 38.5 34.3697V4.13027C38.5 1.84918 36.6508 0 34.3697 0Z" fill="#4195F1"/>
<g id="Group">
<path id="Vector_2" fill-rule="evenodd" clip-rule="evenodd" d="M25.3717 14.7507C25.5192 14.4557 25.8142 14.4557 25.8142 14.0132C25.2242 14.0132 24.7817 14.4557 24.4867 14.6032L14.6035 20.7986L16.5211 26.8465C16.8162 26.5515 16.8162 26.2565 16.8162 25.6664C16.8162 25.3714 16.9637 24.7814 16.9637 24.4864V23.4538C17.1112 23.3063 17.1112 23.1588 17.1112 22.8638C17.1112 22.7162 17.1112 22.5687 17.1112 22.4212C17.2587 22.1262 17.4062 22.2737 17.5537 21.9787C19.7664 19.6185 22.8641 16.9634 25.3717 14.7507Z" fill="#CCD8E6"/>
<path id="Vector_3" fill-rule="evenodd" clip-rule="evenodd" d="M9.73555 19.0286L14.6034 20.7988L24.929 14.3083C25.2241 14.1608 25.5191 14.0133 25.8141 14.0133C25.8141 14.4558 25.2241 14.8984 24.929 15.1934C22.7164 17.111 19.0286 19.9137 17.111 22.1263L18.8811 23.4539C19.1762 23.4539 19.9137 24.1915 20.0612 24.339C20.3562 24.4865 21.5363 25.3716 21.6838 25.6666C21.9788 25.6666 21.9788 25.8141 22.1264 25.9616L23.6014 26.9942C24.1915 27.4367 24.7815 28.1742 25.8141 27.4367L29.0593 12.6857C29.5018 10.1781 28.3218 10.6206 26.6991 11.2106L10.1781 17.8486C9.58804 18.1436 8.998 18.8811 9.73555 19.0286Z" fill="#FEFEFE"/>
<path id="Vector_4" fill-rule="evenodd" clip-rule="evenodd" d="M16.521 26.8468L16.6685 26.9943C16.9635 26.9943 17.2585 26.8468 17.5536 26.5518L20.0612 24.3391C19.9137 24.1916 19.1762 23.4541 18.8811 23.4541L17.111 22.1265L16.521 26.8468Z" fill="#ABBDD5"/>
</g>
<path id="Vector_5" fill-rule="evenodd" clip-rule="evenodd" d="M38.5001 20.5041L28.912 10.916C29.207 11.211 29.207 11.6536 29.0595 12.6861L25.8143 27.4371C24.7817 28.1746 24.1917 27.4371 23.6017 26.9946L22.1266 25.962C21.979 25.8145 21.979 25.667 21.684 25.667C21.5365 25.372 20.3564 24.4869 20.0614 24.3394L17.5538 26.552C17.2587 26.6995 16.9637 26.847 16.6687 26.9946L28.322 38.5003H34.3699L38.5001 34.37V20.5041Z" fill="#4195F1"/>
<path id="Vector_6" fill-rule="evenodd" clip-rule="evenodd" d="M9.7356 19.0288L16.0785 25.5192L14.6034 20.7989L9.7356 19.0288Z" fill="#4195F1"/>
</g>
</g>
</svg>
