<svg width="20" height="20" viewBox="0 0 20 20" fill="none" xmlns="http://www.w3.org/2000/svg">
<g id="Layer_1">
<path id="Vector" d="M19.6621 4.81064L15.7431 1.39532C15.5481 1.22532 15.2521 1.24564 15.0818 1.44095L7.92995 9.64751C7.84776 9.74189 7.80651 9.86533 7.81589 9.99033L8.08776 13.6344C8.1062 13.8806 8.3112 14.0685 8.55464 14.0685C8.56464 14.0685 8.57432 14.0681 8.58432 14.0675L12.2312 13.8388C12.3562 13.831 12.4728 13.7735 12.5553 13.6788L19.7074 5.47189C19.7893 5.37814 19.8303 5.25595 19.8215 5.13189C19.8131 5.00783 19.7559 4.8922 19.6621 4.81064ZM11.9774 12.915L8.98839 13.1028L8.76557 10.116L13.3515 4.85376L16.5634 7.65314L11.9774 12.915ZM17.1793 6.94626L13.9671 4.14689L15.4806 2.41001L18.6928 5.20939L17.1793 6.94626Z" fill="black"/>
<path id="Vector_2" d="M11.8413 17.0379C8.48095 17.4691 4.29907 18.0054 2.14845 16.9157C1.2897 16.4804 1.09751 16.1682 1.11595 16.0638C1.21532 15.5 3.7397 14.7107 6.51814 14.3747C6.77501 14.3435 6.95814 14.11 6.9272 13.8532C6.89595 13.5963 6.66251 13.415 6.40564 13.4438C5.02001 13.611 0.477822 14.2829 0.192822 15.901C0.0190723 16.8872 1.30282 17.5379 1.7247 17.7516C4.13282 18.9719 8.29126 18.4385 11.9606 17.9672C14.1775 17.6832 16.9366 17.3288 17.3453 17.826C17.3935 17.8847 17.3569 18.0244 17.331 18.1025C17.2491 18.3482 17.3816 18.6138 17.6272 18.6954C17.6763 18.7119 17.7263 18.7194 17.7756 18.7194C17.9719 18.7194 18.155 18.5954 18.2203 18.3991C18.4135 17.8197 18.2447 17.4438 18.0694 17.2307C17.3656 16.3757 15.3478 16.5888 11.8413 17.0379Z" fill="black"/>
</g>
</svg>
