<svg width="23" height="13" viewBox="0 0 23 13" fill="none" xmlns="http://www.w3.org/2000/svg">
<path d="M9 3C9 1.3 10.3 0 12 0C13.7 0 15 1.3 15 3C15 4.7 13.7 6 12 6C10.3 6 9 4.7 9 3ZM12 8C7.4 8 6 11.3 6 11.3V13H18V11.3C18 11.3 16.6 8 12 8Z" fill="white"/>
<path d="M18.5 5C19.8807 5 21 3.88071 21 2.5C21 1.11929 19.8807 0 18.5 0C17.1193 0 16 1.11929 16 2.5C16 3.88071 17.1193 5 18.5 5Z" fill="white"/>
<path d="M18.5 7C17.3 7 16.4 7.3 15.7 7.8C18 8.9 18.9 10.8 18.9 11V11.1H23V9.8C23 9.7 21.9 7 18.5 7Z" fill="white"/>
<path d="M4 2V10" stroke="white" stroke-width="2" stroke-miterlimit="10"/>
<path d="M8 6H0" stroke="white" stroke-width="2" stroke-miterlimit="10"/>
</svg>
