<svg width="20" height="18" viewBox="0 0 20 18" fill="none" xmlns="http://www.w3.org/2000/svg">
<path id="Vector" d="M9.69231 1.38462C9.32508 1.38462 8.9729 1.53049 8.71324 1.79016C8.45357 2.04983 8.30769 2.40201 8.30769 2.76923C8.30769 3.13645 8.45357 3.48864 8.71324 3.7483C8.9729 4.00797 9.32508 4.15385 9.69231 4.15385C10.0595 4.15385 10.4117 4.00797 10.6714 3.7483C10.931 3.48864 11.0769 3.13645 11.0769 2.76923C11.0769 2.40201 10.931 2.04983 10.6714 1.79016C10.4117 1.53049 10.0595 1.38462 9.69231 1.38462ZM6.92308 2.76923C6.92308 2.03479 7.21483 1.33042 7.73417 0.811089C8.2535 0.291757 8.95786 0 9.69231 0C10.4268 0 11.1311 0.291757 11.6504 0.811089C12.1698 1.33042 12.4615 2.03479 12.4615 2.76923C12.4615 3.50368 12.1698 4.20804 11.6504 4.72737C11.1311 5.2467 10.4268 5.53846 9.69231 5.53846C8.95786 5.53846 8.2535 5.2467 7.73417 4.72737C7.21483 4.20804 6.92308 3.50368 6.92308 2.76923ZM16.2692 2.07692C15.9938 2.07692 15.7297 2.18633 15.5349 2.38108C15.3402 2.57583 15.2308 2.83997 15.2308 3.11538C15.2308 3.3908 15.3402 3.65494 15.5349 3.84969C15.7297 4.04444 15.9938 4.15385 16.2692 4.15385C16.5446 4.15385 16.8088 4.04444 17.0035 3.84969C17.1983 3.65494 17.3077 3.3908 17.3077 3.11538C17.3077 2.83997 17.1983 2.57583 17.0035 2.38108C16.8088 2.18633 16.5446 2.07692 16.2692 2.07692ZM13.8462 3.11538C13.8462 2.79718 13.9088 2.48209 14.0306 2.18811C14.1524 1.89413 14.3309 1.62701 14.5559 1.40201C14.7809 1.17701 15.048 0.998524 15.342 0.876753C15.6359 0.754982 15.951 0.692308 16.2692 0.692308C16.5874 0.692308 16.9025 0.754982 17.1965 0.876753C17.4905 0.998524 17.7576 1.17701 17.9826 1.40201C18.2076 1.62701 18.3861 1.89413 18.5079 2.18811C18.6296 2.48209 18.6923 2.79718 18.6923 3.11538C18.6923 3.75802 18.437 4.37434 17.9826 4.82876C17.5282 5.28317 16.9119 5.53846 16.2692 5.53846C15.6266 5.53846 15.0103 5.28317 14.5559 4.82876C14.1014 4.37434 13.8462 3.75802 13.8462 3.11538ZM2.07692 3.11538C2.07692 2.83997 2.18633 2.57583 2.38108 2.38108C2.57583 2.18633 2.83997 2.07692 3.11538 2.07692C3.3908 2.07692 3.65494 2.18633 3.84969 2.38108C4.04444 2.57583 4.15385 2.83997 4.15385 3.11538C4.15385 3.3908 4.04444 3.65494 3.84969 3.84969C3.65494 4.04444 3.3908 4.15385 3.11538 4.15385C2.83997 4.15385 2.57583 4.04444 2.38108 3.84969C2.18633 3.65494 2.07692 3.3908 2.07692 3.11538ZM3.11538 0.692308C2.47274 0.692308 1.85643 0.947596 1.40201 1.40201C0.947596 1.85643 0.692308 2.47274 0.692308 3.11538C0.692308 3.75802 0.947596 4.37434 1.40201 4.82876C1.85643 5.28317 2.47274 5.53846 3.11538 5.53846C3.75802 5.53846 4.37434 5.28317 4.82876 4.82876C5.28317 4.37434 5.53846 3.75802 5.53846 3.11538C5.53846 2.47274 5.28317 1.85643 4.82876 1.40201C4.37434 0.947596 3.75802 0.692308 3.11538 0.692308ZM4.60454 14.8881C4.29143 15.0945 3.92828 15.2122 3.55364 15.2288C3.179 15.2455 2.80685 15.1604 2.47668 14.9825C2.14652 14.8047 1.87066 14.5408 1.67838 14.2188C1.48611 13.8969 1.38459 13.5289 1.38462 13.1538V8.65385C1.38462 8.56204 1.42109 8.474 1.486 8.40908C1.55092 8.34416 1.63896 8.30769 1.73077 8.30769H4.52146C4.58528 7.80098 4.78798 7.32178 5.10715 6.92308H1.73077C1.27174 6.92308 0.831513 7.10543 0.506931 7.43001C0.182349 7.75459 1.55349e-07 8.19482 1.55349e-07 8.65385V13.1538C-0.000178416 13.75 0.153595 14.336 0.446426 14.8553C0.739257 15.3745 1.16122 15.8093 1.67144 16.1176C2.18167 16.4259 2.76285 16.5972 3.35871 16.6149C3.95457 16.6326 4.54491 16.4961 5.07254 16.2187C4.85674 15.7985 4.69929 15.3508 4.60454 14.8881ZM14.3121 16.2187C14.8397 16.4961 15.43 16.6326 16.0259 16.6149C16.6218 16.5972 17.2029 16.4259 17.7132 16.1176C18.2234 15.8093 18.6454 15.3745 18.9382 14.8553C19.231 14.336 19.3848 13.75 19.3846 13.1538V8.65385C19.3846 8.19482 19.2023 7.75459 18.8777 7.43001C18.5531 7.10543 18.1129 6.92308 17.6538 6.92308H14.2775C14.5966 7.32178 14.7993 7.80098 14.8632 8.30769H17.6538C17.7457 8.30769 17.8337 8.34416 17.8986 8.40908C17.9635 8.474 18 8.56204 18 8.65385V13.1538C18 13.5289 17.8985 13.8969 17.7062 14.2188C17.514 14.5408 17.2381 14.8047 16.9079 14.9825C16.5778 15.1604 16.2056 15.2455 15.831 15.2288C15.4563 15.2122 15.0932 15.0945 14.7801 14.8881C14.6853 15.3508 14.5279 15.7985 14.3121 16.2187ZM7.26923 6.92308C6.8102 6.92308 6.36997 7.10543 6.04539 7.43001C5.72081 7.75459 5.53846 8.19482 5.53846 8.65385V13.8462C5.53846 14.9478 5.9761 16.0044 6.75509 16.7834C7.53409 17.5624 8.59064 18 9.69231 18C10.794 18 11.8505 17.5624 12.6295 16.7834C13.4085 16.0044 13.8462 14.9478 13.8462 13.8462V8.65385C13.8462 8.19482 13.6638 7.75459 13.3392 7.43001C13.0146 7.10543 12.5744 6.92308 12.1154 6.92308H7.26923ZM6.92308 8.65385C6.92308 8.56204 6.95955 8.474 7.02446 8.40908C7.08938 8.34416 7.17742 8.30769 7.26923 8.30769H12.1154C12.2072 8.30769 12.2952 8.34416 12.3602 8.40908C12.4251 8.474 12.4615 8.56204 12.4615 8.65385V13.8462C12.4615 14.5806 12.1698 15.285 11.6504 15.8043C11.1311 16.3236 10.4268 16.6154 9.69231 16.6154C8.95786 16.6154 8.2535 16.3236 7.73417 15.8043C7.21483 15.285 6.92308 14.5806 6.92308 13.8462V8.65385Z" fill="black"/>
</svg>
