<svg width="32" height="32" viewBox="0 0 32 32" fill="none" xmlns="http://www.w3.org/2000/svg">
<path id="Telegram" d="M29.8142 0.130765L0.833233 13.5542C0.815991 13.5621 0.799276 13.5716 0.783232 13.5826C0.548224 13.742 -1.09183 14.9427 1.22075 16.0192L1.2445 16.0297L8.14536 18.6982C8.19801 18.7187 8.25376 18.7251 8.30871 18.7171C8.36367 18.7091 8.41649 18.6868 8.4635 18.6518L25.5797 5.86955C25.6217 5.8382 25.6684 5.8171 25.7172 5.80746C25.9554 5.76032 26.641 5.67205 26.2072 6.33114C25.7166 7.07925 14.0256 19.6191 12.728 21.0099C12.6532 21.0903 12.6069 21.2019 12.5986 21.3218L12.0324 29.4015C12.0323 29.4838 12.0482 29.565 12.0789 29.6386C12.1097 29.7122 12.1543 29.7763 12.2093 29.8257C12.2873 29.8845 12.379 29.9117 12.471 29.9034C12.5629 29.895 12.6502 29.8515 12.7199 29.7793L16.82 25.3931C16.8848 25.3238 16.9674 25.2832 17.0542 25.2779C17.1409 25.2725 17.2266 25.3029 17.2969 25.3639L24.4503 31.5807L24.4734 31.5994C24.6466 31.7274 26.5166 33.0298 27.0566 30.1212L31.9943 2.01826C32.0012 1.92923 32.0681 0.950698 31.4837 0.372405C30.8699 -0.232071 30.0011 0.0731596 29.8705 0.106077C29.8512 0.112497 29.8324 0.120753 29.8142 0.130765Z" fill="#4195F1"/>
</svg>
